<?xml version="1.0" encoding="utf-8"?>
<!-- Generator: Adobe Illustrator 17.1.0, SVG Export Plug-In . SVG Version: 6.00 Build 0)  -->
<!DOCTYPE svg PUBLIC "-//W3C//DTD SVG 1.1//EN" "http://www.w3.org/Graphics/SVG/1.1/DTD/svg11.dtd">
<svg version="1.1" xmlns="http://www.w3.org/2000/svg" xmlns:xlink="http://www.w3.org/1999/xlink" x="0px" y="0px"
	 viewBox="0 0 1775.7 1775.6" enable-background="new 0 0 1775.7 1775.6" xml:space="preserve">
<g id="Layer_1">
	<path fill="#ED1B2F" d="M1102,484.5c-286.5-0.1-286.5-0.1-714.1,0.1v171.5c125.1,0,592.2-0.3,691.2-0.3
		c83.1,0,132.5-13.1,132.5,89.3c0.7,21.2,0,45.2,0,45.2h-594c-181.9,0-258.5,84.2-258.5,222v34.6c0,132.5,91.9,240.2,254.3,243.8
		c46.8,0.5,503.2,0.5,549.9,0c162.5-3.5,253.2-111.3,253.2-243.8v-34.6V739.9C1416.6,520.8,1284,484.5,1102,484.5z M1214.8,1022.3
		c0,79.4-44.4,95.3-95.7,95.3c-28.8,0-61,0.5-92.7,0c-31.9,0.5-340,0-368.9,0c-50.1,0-97.2-15.7-93.3-90.9
		c2.1-39.1,25.5-75.1,85.2-81l562.1-21.1l3.2,87.7V1022.3z"/>
</g>
<g id="Layer_2">
</g>
</svg>
