<?xml version="1.0" encoding="utf-8"?>
<!-- Generator: Adobe Illustrator 17.1.0, SVG Export Plug-In . SVG Version: 6.00 Build 0)  -->
<!DOCTYPE svg PUBLIC "-//W3C//DTD SVG 1.1//EN" "http://www.w3.org/Graphics/SVG/1.1/DTD/svg11.dtd">
<svg version="1.1" xmlns="http://www.w3.org/2000/svg" xmlns:xlink="http://www.w3.org/1999/xlink" x="0px" y="0px"
	 viewBox="0 0 4960 1775.6" enable-background="new 0 0 4960 1775.6" xml:space="preserve">
<g id="Layer_1">
	<g>
		<path fill="#C52126" d="M1325.9,621.2c25.2-88.4,128.6-83.4,128.6-83.4l-196.1,539.1l-62.5-114.4
			C1195.9,962.5,1318.2,648.4,1325.9,621.2z"/>
		<path fill="#ED1B2F" d="M2821.9,682.3c80.5,0,160.1,1.2,248.8,16.2v81.9c-3.6,0-148.3-11.6-221.4-11.6
			c-62.7,0-204.7,10.5-204.7,116c0,108.5,141.1,112,199.6,112c40.2,0.7,128.1-2.4,128.1-2.4l0.1-67.6h-100.3l3.7-77.4
			c155.1,0,155.1,0,155.1,0h41.4v230.8h-70.7l-33.8-0.7c1.1-1.3-138.4,3.4-146.1,3.8c-126.1,6.1-277-73-277-199.7
			C2544.7,751.3,2700.6,682.3,2821.9,682.3z"/>
		<polygon fill="#ED1B2F" points="1160.4,1076.9 1012.2,807 1104.4,807 1110.9,807 1258.4,1076.9 		"/>
		<g>
			<path fill="#ED1B2F" d="M3673.2,710.4v-125h98v106.3h177.5v80.3h-177.5v161.5c0,68.4,16.8,61.7,42.2,63.3
				c0,0,123.4,5.1,129.3,5.1v75.1h-158.9c-65.9,0-110.7-41.4-110.7-160.5V790.6V710.4z"/>
		</g>
		<g>
			<path fill="#ED1B2F" d="M1981.3,699.3h76c0,0,235.8-7.6,304.3-7.6c99.6,0,136,36.4,136,117.5v267.6h-98V821
				c0-48.1-24.5-46.4-59.1-46.4c-54.9,0-114.4,7-261.2,12.4v290h-97.9V699.3z"/>
		</g>
		<path fill="#ED1B2F" d="M1766.7,691.7c-137,0-137,0-341.4,0.1v82c59.8,0,283.2-0.1,330.5-0.1c39.7,0,63.3-6.3,63.3,42.7
			c0.4,10.2,0,21.6,0,21.6h-284c-87,0-123.6,40.3-123.6,106.2v16.6c0,63.3,43.9,114.9,121.6,116.6c22.4,0.3,240.6,0.3,262.9,0
			c77.7-1.7,121.1-53.2,121.1-116.6v-16.6V813.8C1917.1,709.1,1853.7,691.7,1766.7,691.7z M1820.6,948.9c0,37.9-21.2,45.6-45.7,45.6
			c-13.8,0-29.2,0.2-44.3,0c-15.3,0.2-162.5,0-176.4,0c-24,0-46.5-7.5-44.6-43.4c1-18.7,12.2-35.9,40.7-38.7l268.8-10.1l1.6,41.9
			V948.9z"/>
		<path fill="#ED1B2F" d="M3467.2,691.7c-137,0-137.1,0-341.6,0.1v82c59.8,0,283.3-0.1,330.6-0.1c39.7,0,63.3-6.3,63.3,42.7
			c0.4,10.2,0,21.6,0,21.6h-284c-87,0-123.6,40.3-123.6,106.2v16.6c0,63.3,43.9,114.9,121.6,116.6c22.4,0.3,240.6,0.3,262.9,0
			c77.7-1.7,121.1-53.2,121.1-116.6v-16.6V813.8C3617.6,709.1,3554.3,691.7,3467.2,691.7z M3521.1,948.9c0,37.9-21.2,45.6-45.7,45.6
			c-13.8,0-29.2,0.2-44.3,0c-15.3,0.2-162.5,0-176.4,0c-24,0-46.5-7.5-44.6-43.4c1-18.7,12.2-35.9,40.7-38.7l268.8-10.1l1.6,41.9
			V948.9z"/>
		<path fill="#ED1B2F" d="M848.2,691.7c-137,0-137,0-341.4,0.1v82c59.8,0,283.2-0.1,330.5-0.1c39.7,0,63.3-6.3,63.3,42.7
			c0.4,10.2,0,21.6,0,21.6h-284c-87,0-123.6,40.3-123.6,106.2v16.6c0,63.3,43.9,114.9,121.6,116.6c22.4,0.3,240.6,0.3,262.9,0
			c77.7-1.7,121.1-53.2,121.1-116.6v-16.6V813.8C998.6,709.1,935.3,691.7,848.2,691.7z M902.1,948.9c0,37.9-21.2,45.6-45.7,45.6
			c-13.8,0-29.2,0.2-44.3,0c-15.3,0.2-162.5,0-176.4,0c-24,0-46.5-7.5-44.6-43.4c1-18.7,12.2-35.9,40.7-38.7l268.8-10.1l1.6,41.9
			V948.9z"/>
		<path fill="#ED1B2F" d="M4152.5,1077.6c106.9,0,341.4,0,341.4,0v-88c-53.5,0-283.1-0.1-330.4-0.1c-39.7,0-63.4,6.3-63.4-42.7
			c-0.4-10.1,0-34.7,0-34.7c0-0.8,284,0,284,0c87,0,123.7-27.7,123.7-93.6v-10.1c0-63.3-43.9-114.9-121.7-116.6
			c-22.3-0.3-167.9-0.2-262.9,0c-77.8,0.2-121.1,53.2-121.1,116.6v4v130.5C4002.1,1060.2,4065.5,1077.6,4152.5,1077.6z
			 M4098.6,820.2c0-38,21.3-47.2,45.9-47.2c13.7,0,206.8,0,220.6,0c24,0,46.4,2.7,44.5,38.5c-0.9,18.7-12.1,23.3-40.7,26.2
			l-269.8,10.7l-0.5-23.5V820.2z"/>
	</g>
</g>
<g id="Layer_2">
</g>
</svg>
